<?xml version="1.0" encoding="UTF-8"?>
<svg id="Layer_2" data-name="Layer 2" xmlns="http://www.w3.org/2000/svg" viewBox="0 0 290.5 291">
  <defs>
    <style>
      .cls-1 {
        isolation: isolate;
      }

      .cls-2 {
        fill: #0cf;
      }

      .cls-3 {
        fill: none;
        stroke: #030000;
        stroke-miterlimit: 100;
        stroke-width: .5px;
      }
    </style>
  </defs>
  <g id="_14" data-name="14" class="cls-1">
    <g id="_14-2" data-name="14">
      <path class="cls-2" d="M20.25,99.75c-11.05,0-20,8.95-20,20s8.95,20,20,20,20-8.95,20-20-8.95-20-20-20ZM20.25,149.75c-11.05,0-20,8.95-20,20s8.95,20,20,20,20-8.95,20-20-8.95-20-20-20ZM70.25,50.25c-11.05,0-20,8.95-20,20s8.95,20,20,20,20-8.95,20-20-8.95-20-20-20ZM70.25,100.25c-11.05,0-20,8.95-20,20s8.95,20,20,20,20-8.95,20-20-8.95-20-20-20ZM70.25,150.25c-11.05,0-20,8.95-20,20s8.95,20,20,20,20-8.95,20-20-8.95-20-20-20ZM70.25,200.25c-11.05,0-20,8.95-20,20s8.95,20,20,20,20-8.95,20-20-8.95-20-20-20ZM120.25.25c-11.05,0-20,8.95-20,20s8.95,20,20,20,20-8.95,20-20S131.3.25,120.25.25ZM120.25,50.25c-11.05,0-20,8.95-20,20s8.95,20,20,20,20-8.95,20-20-8.95-20-20-20ZM120.25,100.25c-11.05,0-20,8.95-20,20s8.95,20,20,20,20-8.95,20-20-8.95-20-20-20ZM120.25,150.25c-11.05,0-20,8.95-20,20s8.95,20,20,20,20-8.95,20-20-8.95-20-20-20ZM120.25,200.25c-11.05,0-20,8.95-20,20s8.95,20,20,20,20-8.95,20-20-8.95-20-20-20ZM120.25,250.25c-11.05,0-20,8.95-20,20s8.95,20,20,20,20-8.95,20-20-8.95-20-20-20ZM170.25.75c-11.05,0-20,8.95-20,20s8.95,20,20,20,20-8.95,20-20S181.3.75,170.25.75ZM170.25,50.75c-11.05,0-20,8.95-20,20s8.95,20,20,20,20-8.95,20-20-8.95-20-20-20ZM170.25,100.75c-11.05,0-20,8.95-20,20s8.95,20,20,20,20-8.95,20-20-8.95-20-20-20ZM170.25,150.75c-11.05,0-20,8.95-20,20s8.95,20,20,20,20-8.95,20-20-8.95-20-20-20ZM170.25,200.75c-11.05,0-20,8.95-20,20s8.95,20,20,20,20-8.95,20-20-8.95-20-20-20ZM170.25,250.75c-11.05,0-20,8.95-20,20s8.95,20,20,20,20-8.95,20-20-8.95-20-20-20ZM220.25,50.25c-11.05,0-20,8.95-20,20s8.95,20,20,20,20-8.95,20-20-8.95-20-20-20ZM220.25,100.25c-11.05,0-20,8.95-20,20s8.95,20,20,20,20-8.95,20-20-8.95-20-20-20ZM220.25,150.25c-11.05,0-20,8.95-20,20s8.95,20,20,20,20-8.95,20-20-8.95-20-20-20ZM220.25,200.25c-11.05,0-20,8.95-20,20s8.95,20,20,20,20-8.95,20-20-8.95-20-20-20ZM270.25,140.75c11.05,0,20-8.95,20-20s-8.95-20-20-20-20,8.95-20,20,8.95,20,20,20ZM270.25,150.75c-11.05,0-20,8.95-20,20s8.95,20,20,20,20-8.95,20-20-8.95-20-20-20Z"/>
      <path class="cls-3" d="M20.25,99.75c-11.05,0-20,8.95-20,20s8.95,20,20,20,20-8.95,20-20-8.95-20-20-20ZM20.25,149.75c-11.05,0-20,8.95-20,20s8.95,20,20,20,20-8.95,20-20-8.95-20-20-20ZM70.25,50.25c-11.05,0-20,8.95-20,20s8.95,20,20,20,20-8.95,20-20-8.95-20-20-20ZM70.25,100.25c-11.05,0-20,8.95-20,20s8.95,20,20,20,20-8.95,20-20-8.95-20-20-20ZM70.25,150.25c-11.05,0-20,8.95-20,20s8.95,20,20,20,20-8.95,20-20-8.95-20-20-20ZM70.25,200.25c-11.05,0-20,8.95-20,20s8.95,20,20,20,20-8.95,20-20-8.95-20-20-20ZM120.25.25c-11.05,0-20,8.95-20,20s8.95,20,20,20,20-8.95,20-20S131.3.25,120.25.25ZM120.25,50.25c-11.05,0-20,8.95-20,20s8.95,20,20,20,20-8.95,20-20-8.95-20-20-20ZM120.25,100.25c-11.05,0-20,8.95-20,20s8.95,20,20,20,20-8.95,20-20-8.95-20-20-20ZM120.25,150.25c-11.05,0-20,8.95-20,20s8.95,20,20,20,20-8.95,20-20-8.95-20-20-20ZM120.25,200.25c-11.05,0-20,8.95-20,20s8.95,20,20,20,20-8.95,20-20-8.95-20-20-20ZM120.25,250.25c-11.05,0-20,8.95-20,20s8.95,20,20,20,20-8.95,20-20-8.95-20-20-20ZM170.25.75c-11.05,0-20,8.95-20,20s8.95,20,20,20,20-8.95,20-20S181.3.75,170.25.75ZM170.25,50.75c-11.05,0-20,8.95-20,20s8.95,20,20,20,20-8.95,20-20-8.95-20-20-20ZM170.25,100.75c-11.05,0-20,8.95-20,20s8.95,20,20,20,20-8.95,20-20-8.95-20-20-20ZM170.25,150.75c-11.05,0-20,8.95-20,20s8.95,20,20,20,20-8.95,20-20-8.95-20-20-20ZM170.25,200.75c-11.05,0-20,8.95-20,20s8.95,20,20,20,20-8.95,20-20-8.95-20-20-20ZM170.25,250.75c-11.05,0-20,8.95-20,20s8.95,20,20,20,20-8.95,20-20-8.95-20-20-20ZM220.25,50.25c-11.05,0-20,8.95-20,20s8.95,20,20,20,20-8.95,20-20-8.95-20-20-20ZM220.25,100.25c-11.05,0-20,8.95-20,20s8.95,20,20,20,20-8.95,20-20-8.95-20-20-20ZM220.25,150.25c-11.05,0-20,8.95-20,20s8.95,20,20,20,20-8.95,20-20-8.95-20-20-20ZM220.25,200.25c-11.05,0-20,8.95-20,20s8.95,20,20,20,20-8.95,20-20-8.95-20-20-20ZM270.25,140.75c11.05,0,20-8.95,20-20s-8.95-20-20-20-20,8.95-20,20,8.95,20,20,20ZM270.25,150.75c-11.05,0-20,8.95-20,20s8.95,20,20,20,20-8.95,20-20-8.95-20-20-20Z"/>
    </g>
  </g>
</svg>