<?xml version="1.0" encoding="UTF-8"?><svg id="Camada_1" xmlns="http://www.w3.org/2000/svg" viewBox="0 0 444.65 444.65"><defs><style>.cls-1{fill:#ea5c28;}.cls-1,.cls-2{fill-rule:evenodd;stroke-width:0px;}.cls-2{fill:#0c457f;}</style></defs><path class="cls-2" d="M234.79,229.19v-7.37c0-4.38,1.5-8.43,4.02-11.66-2.52-3.22-4.02-7.27-4.02-11.66v-7.37c0-10.46,8.56-19.02,19.02-19.02h42.52v14.65h-42.52c-2.41,0-4.37,1.97-4.37,4.37v7.37c0,2.15,1.58,3.95,3.63,4.31.25,0,.49-.02.74-.02h26.53v14.73h-26.53c-.25,0-.5,0-.74-.01-2.06.35-3.63,2.16-3.63,4.31v7.37c0,2.41,1.97,4.37,4.37,4.37h42.52v14.65h-42.52c-10.46,0-19.02-8.56-19.02-19.02M85.45,229.19v-7.37c0-4.38,1.5-8.43,4.02-11.66-2.51-3.22-4.02-7.27-4.02-11.66v-7.37c0-10.46,8.56-19.02,19.02-19.02h42.52v14.65h-42.52c-2.41,0-4.37,1.97-4.37,4.37v7.37c0,2.15,1.58,3.95,3.63,4.31.25,0,.49-.02.74-.02h26.53v14.73h-26.53c-.25,0-.5,0-.74-.01-2.05.35-3.63,2.16-3.63,4.31v7.37c0,2.41,1.97,4.37,4.37,4.37h42.52v14.65h-42.52c-10.46,0-19.02-8.56-19.02-19.02M171.53,171.97h7.37c4.38,0,8.43,1.5,11.66,4.02,3.23-2.51,7.27-4.02,11.66-4.02h7.37c10.46,0,19.02,8.56,19.02,19.02v57.27h-14.65v-57.27c0-2.4-1.97-4.37-4.37-4.37h-7.37c-2.15,0-3.95,1.58-4.31,3.63,0,.25.02.49.02.74v26.53h-14.73v-26.53c0-.25,0-.49.02-.74-.35-2.05-2.16-3.63-4.31-3.63h-7.37c-2.4,0-4.37,1.97-4.37,4.37v57.27h-14.65v-57.27c0-10.46,8.56-19.02,19.02-19.02"/><path class="cls-1" d="M323.52,186.7h15.97c-6.9,15.61-13.81,31.22-20.68,46.84,6.94-.12,13.78-.14,20.67-.14,2.73-.11,4.94-2.32,5.06-5.05-.02-8.63-.07-16.78-.07-25.46h14.72c0,9.15.01,17.86.01,27v42.79h-14.73v-24.52h-42.19s0-14.89,0-14.89l21.25-46.56Z"/></svg>